<?xml version="1.0" encoding="UTF-8"?>
<svg id="Layer_2" xmlns="http://www.w3.org/2000/svg" xmlns:xlink="http://www.w3.org/1999/xlink" viewBox="0 0 1351.37 389.68">
  <defs>
    <style>
      .cls-1 {
        fill: url(#linear-gradient-2);
      }

      .cls-2 {
        fill: #0d89fc;
      }

      .cls-3 {
        fill: url(#linear-gradient);
      }

      .cls-4 {
        fill: #ffffff;
      }

      .cls-5 {
        fill: #1594fd;
      }
    </style>
    <linearGradient id="linear-gradient" x1="14220.23" y1="50.27" x2="14145.02" y2="152.62" gradientTransform="translate(309.29 -13989.63) rotate(91.41) scale(1 -1)" gradientUnits="userSpaceOnUse">
      <stop offset="0" stop-color="#1594fd" stop-opacity=".2"/>
      <stop offset=".02" stop-color="#1594fd" stop-opacity=".25"/>
      <stop offset=".1" stop-color="#1594fd" stop-opacity=".43"/>
      <stop offset=".19" stop-color="#1594fd" stop-opacity=".58"/>
      <stop offset=".29" stop-color="#1594fd" stop-opacity=".71"/>
      <stop offset=".39" stop-color="#1594fd" stop-opacity=".82"/>
      <stop offset=".5" stop-color="#1594fd" stop-opacity=".9"/>
      <stop offset=".62" stop-color="#1594fd" stop-opacity=".96"/>
      <stop offset=".77" stop-color="#1594fd" stop-opacity=".99"/>
      <stop offset="1" stop-color="#1594fd"/>
    </linearGradient>
    <linearGradient id="linear-gradient-2" x1="14168.31" y1="6854.52" x2="14093.1" y2="6956.87" gradientTransform="translate(7207.78 -13878.27) rotate(90.49)" xlink:href="#linear-gradient"/>
  </defs>
  <g id="_Слой_1" data-name="Слой_1">
    <g>
      <g>
        <g>
          <path class="cls-4" d="M1288.08,130.63h-11.98v-5.68h30.67v5.68h-11.98v30.47h-6.71v-30.47Z"/>
          <path class="cls-4" d="M1345.03,161.1l-.06-23.95-11.87,19.82h-3l-11.87-19.52v23.65h-6.4v-36.15h5.52l14.35,23.95,14.1-23.95h5.53l.05,36.15h-6.34Z"/>
        </g>
        <g>
          <path class="cls-4" d="M438.28,352.09l-16.72-46.75h-80.18l-17,46.75h-42.78l74.23-198.33h51.28l74.23,198.33h-43.07ZM355.26,266.81h52.13l-26.07-71.97-26.07,71.97Z"/>
          <path class="cls-4" d="M505.98,352.09v-198.33h40.52v198.33h-40.52Z"/>
          <path class="cls-4" d="M662.23,313.55h70.25l22.12,38.54h-132.89v-198.33h40.52v159.8Z"/>
          <path class="cls-4" d="M890.7,192.29h-73.48v39.95h65.83l19.17,38.53h-85v42.78h73.48l19.17,38.54h-133.17v-198.33h133.17l-19.17,38.53Z"/>
          <path class="cls-4" d="M1068.42,153.76h37.63v198.33h-46.75l-86.13-138.83,1.2,138.83h-38.04v-198.33h46.47l86.42,138.83-.8-138.83Z"/>
          <path class="cls-4" d="M1215.86,231.11c14.55,3.02,26.25,6.05,35.13,9.06,8.88,3.03,17,6.85,24.37,11.48,7.37,4.63,12.61,10.34,15.72,17.14,3.12,6.8,4.68,15.02,4.68,24.65,0,10.95-2.32,20.64-6.94,29.04-4.63,8.41-10.77,14.88-18.42,19.41-7.65,4.53-15.68,7.94-24.08,10.2-8.41,2.27-17.05,3.4-25.93,3.4-27.01,0-47.55-6.38-61.62-19.13-14.08-12.75-22.34-28.76-24.79-48.02h40.8c2.83,10.2,7.69,17.66,14.59,22.38,6.89,4.72,17.14,7.08,30.74,7.08,11.33,0,19.97-1.98,25.93-5.95,5.95-3.97,8.93-9.53,8.93-16.72,0-4.53-1.66-8.17-4.96-10.91-3.31-2.74-7.32-4.77-12.04-6.09-4.72-1.32-13.13-3.3-25.22-5.95-.94-.19-1.65-.33-2.12-.43-.47-.09-1.13-.24-1.98-.43-.85-.19-1.66-.38-2.41-.57-10.2-2.07-18.8-4.34-25.78-6.8-6.99-2.45-13.88-5.85-20.69-10.2-6.8-4.34-11.95-9.92-15.44-16.71-3.5-6.8-5.24-14.92-5.24-24.37,0-19.65,7.37-34.94,22.1-45.9,14.73-10.95,32.3-16.43,52.7-16.43,24.94,0,43.87,5.71,56.81,17.14,12.94,11.43,20.64,26.21,23.09,44.34h-41.08c-4.91-15.87-17.76-23.8-38.53-23.8-11.53,0-20.12,2.13-25.79,6.38-5.67,4.25-8.5,9.78-8.5,16.57,0,5.48,2.41,9.45,7.23,11.9,4.81,2.46,14.4,5.2,28.76,8.22Z"/>
        </g>
      </g>
      <g>
        <path class="cls-2" d="M275.77,0l8.34,22.53c5.09,13.76,15.94,24.61,29.7,29.7l22.53,8.34-22.53,8.34c-13.76,5.09-24.61,15.94-29.7,29.7l-8.34,22.53-8.34-22.53c-5.09-13.76-15.94-24.61-29.7-29.7l-22.53-8.34,22.53-8.34c13.76-5.09,24.61-15.94,29.7-29.7l8.34-22.53Z"/>
        <path class="cls-2" d="M215.21,78.77l4.8,12.97c2.93,7.92,9.18,14.16,17.1,17.1l12.97,4.8-12.97,4.8c-7.92,2.93-14.16,9.18-17.1,17.1l-4.8,12.97-4.8-12.97c-2.93-7.92-9.18-14.16-17.1-17.1l-12.97-4.8,12.97-4.8c7.92-2.93,14.16-9.18,17.1-17.1l4.8-12.97Z"/>
        <g>
          <path class="cls-3" d="M109.93,116.61L12.31,179.28c-5.85,3.76-9.46,10.17-9.63,17.13l-1.91,77.47,94.48-60.66c7.82-5.02,12.64-13.59,12.86-22.87l1.82-73.74Z"/>
          <path class="cls-5" d="M107.67,389.08L8.78,322.2C3.12,318.16-.17,311.57,0,304.62l2.3-93.31h0c-.24,9.91,4.44,19.3,12.51,25.06l92.93,64.14-.08,88.59Z"/>
        </g>
        <g>
          <path class="cls-1" d="M134.88,116.61l95.48,65.88c5.73,3.95,9.12,10.48,9.06,17.44l-.66,77.49-92.41-63.76c-7.65-5.28-12.18-14-12.1-23.29l.63-73.76Z"/>
          <path class="cls-5" d="M132.54,389.68l96.6-64.24c5.79-3.85,9.3-10.33,9.36-17.28l.8-93.34h0c-.08,9.91-5.08,19.14-13.33,24.63l-92.66,61.62-.76,88.61Z"/>
        </g>
      </g>
    </g>
  </g>
</svg>